<svg data-name="Grupo 63" xmlns="http://www.w3.org/2000/svg" width="202.41" height="52.854" viewBox="0 0 202.41 52.854">
    <g data-name="Grupo 64">
        <path data-name="Trazado 194" d="M52.277 110.6h2.669a2.242 2.242 0 0 1 2.45 2.435 2 2 0 0 1-1.206 2.1 2.374 2.374 0 0 1 1.524 2.479 2.671 2.671 0 0 1-2.836 2.911h-2.6zm2.286 4.105c1.219 0 1.644-.531 1.644-1.559a1.38 1.38 0 0 0-1.52-1.544h-1.209v3.1zm-1.085 4.834h1.282c1.114 0 1.725-.659 1.725-1.925a1.7 1.7 0 0 0-1.931-1.919h-1.076z" transform="translate(-32.062 -67.831)" style="fill:#a8752f"/>
        <path data-name="Trazado 195" d="M71 110.6v6.94c0 1.041.3 2.1 1.565 2.1s1.566-.886 1.566-2.1v-6.94h1.22v6.96c0 1.8-.662 3.127-2.816 3.127-2.085 0-2.764-1.246-2.764-3.078V110.6z" transform="translate(-42.793 -67.832)" style="fill:#a8752f"/>
        <path data-name="Rectángulo 111" transform="translate(34.354 42.767)" style="fill:#a8752f" d="M0 0h1.221v9.928H0z"/>
        <path data-name="Trazado 196" d="M97.013 110.6h1.221v8.864h3.517l-.159 1.064h-4.579z" transform="translate(-59.499 -67.832)" style="fill:#a8752f"/>
        <path data-name="Trazado 197" d="M111.8 110.6h2.28c2.34 0 3.36 1.606 3.36 4.714 0 3.367-.934 5.214-3.515 5.214H111.8zm1.227 8.9h.858c1.734 0 2.291-1.366 2.291-4.151 0-2.569-.629-3.7-2.277-3.7h-.872z" transform="translate(-68.571 -67.831)" style="fill:#a8752f"/>
        <path data-name="Rectángulo 112" transform="translate(50.417 42.767)" style="fill:#a8752f" d="M0 0h1.221v9.928H0z"/>
        <path data-name="Trazado 198" d="M138.554 120.526V110.6h1.471c2.613 6.609 3 7.565 3.125 8.006h.014c-.072-1.307-.087-2.795-.087-4.411v-3.6h1.129v9.928H142.8c-2.711-6.959-3.068-7.9-3.184-8.3h-.016c.073 1.238.081 2.832.081 4.618v3.684z" transform="translate(-84.977 -67.831)" style="fill:#a8752f"/>
        <path data-name="Trazado 199" d="M162.9 120.3h-.952a8.373 8.373 0 0 1-.072-1.029 1.96 1.96 0 0 1-1.984 1.181c-2.136 0-2.734-2.146-2.734-5.094 0-3.457 1.083-5.13 3.121-5.13a2.543 2.543 0 0 1 2.622 2.742h-1.215c-.029-.362-.109-1.685-1.442-1.685-1.354 0-1.815 1.628-1.815 4.057 0 2.451.353 4.06 1.7 4.06 1.264 0 1.565-1.044 1.565-3.007v-.5h-1.65v-1.064h2.856z" transform="translate(-96.386 -67.601)" style="fill:#a8752f"/>
        <path data-name="Trazado 200" d="M188.4 120.3h-.952a8.379 8.379 0 0 1-.072-1.029 1.96 1.96 0 0 1-1.984 1.181c-2.136 0-2.734-2.146-2.734-5.094 0-3.457 1.083-5.13 3.121-5.13a2.543 2.543 0 0 1 2.622 2.742h-1.215c-.029-.362-.109-1.685-1.442-1.685-1.354 0-1.816 1.628-1.816 4.057 0 2.451.353 4.06 1.7 4.06 1.264 0 1.565-1.044 1.565-3.007v-.5h-1.65v-1.064h2.857z" transform="translate(-112.025 -67.601)" style="fill:#a8752f"/>
        <path data-name="Trazado 201" d="M207.157 115.247c0 3.432-.84 5.2-3.016 5.2-2.063 0-2.946-1.714-2.946-5.19 0-3.422 1.035-5.035 3-5.035 2.076 0 2.96 1.644 2.96 5.024m-4.7-.012c0 2.74.531 4.162 1.725 4.162 1.237 0 1.723-1.368 1.723-4.146s-.525-3.971-1.731-3.971c-1.184 0-1.717 1.345-1.717 3.955" transform="translate(-123.396 -67.601)" style="fill:#a8752f"/>
        <path data-name="Trazado 202" d="M220.614 110.6h1.221v8.864h3.517l-.159 1.064h-4.578z" transform="translate(-135.305 -67.832)" style="fill:#a8752f"/>
        <path data-name="Trazado 203" d="M235.407 110.6h4.673v1.083h-3.46v3.168h3.245v1.07h-3.245v4.606h-1.214z" transform="translate(-144.378 -67.832)" style="fill:#a8752f"/>
        <path data-name="Trazado 204" d="m263.748 114.326-1.878 3.774c-.759 1.491-1.344 2.36-2.793 2.36-1.558 0-2.332-1.092-2.332-2.667 0-1.294.561-2.126 2.08-3.089 1.295-.838 1.586-1.363 1.586-2.254 0-.665-.231-1.2-.941-1.2-.605 0-.943.507-.943 1.29a2.942 2.942 0 0 0 .823 1.955l4.709 5.837h-1.522l-4.141-5.185a3.943 3.943 0 0 1-1.015-2.561 2.1 2.1 0 0 1 2.105-2.3 1.941 1.941 0 0 1 2.045 2.106c0 1.418-.714 2.094-2.133 2.983a2.505 2.505 0 0 0-1.443 2.311c0 1.046.453 1.711 1.223 1.711.793 0 1.211-.573 1.919-2.029l1.443-3.052z" transform="translate(-157.465 -67.646)" style="fill:#a8752f"/>
        <path data-name="Trazado 205" d="M286.01 110.6h2.669a2.242 2.242 0 0 1 2.449 2.435 2 2 0 0 1-1.206 2.1 2.374 2.374 0 0 1 1.524 2.479 2.671 2.671 0 0 1-2.836 2.911h-2.6zm2.29 4.1c1.219 0 1.643-.531 1.643-1.559a1.38 1.38 0 0 0-1.52-1.544h-1.209v3.1zm-1.085 4.834h1.282c1.114 0 1.725-.659 1.725-1.925a1.7 1.7 0 0 0-1.931-1.919h-1.076z" transform="translate(-175.414 -67.831)" style="fill:#a8752f"/>
        <path data-name="Trazado 206" d="M308.116 115.829h-3.289v3.628h3.66l-.162 1.07h-4.7V110.6h4.658v1.084h-3.451v3.069h3.289z" transform="translate(-186.214 -67.832)" style="fill:#a8752f"/>
        <path data-name="Trazado 207" d="m320.091 117.5-.678 3.026h-1.22l2.379-9.928h1.583l2.442 9.928H323.3l-.686-3.026zm2.286-1.077c-.538-2.336-.895-3.858-1.032-4.678h-.036c-.133.874-.521 2.6-.985 4.678z" transform="translate(-195.151 -67.831)" style="fill:#a8752f"/>
        <path data-name="Trazado 208" d="M342.141 117.522c-.044.563-.283 2.927-2.755 2.927-2.677 0-2.9-2.734-2.9-5.175 0-2.949.8-5.049 3.018-5.049 2.437 0 2.585 2.245 2.613 2.887h-1.223c-.021-.336-.076-1.814-1.411-1.814-1.48 0-1.726 1.991-1.726 3.988 0 2.053.224 4.1 1.659 4.1 1.274 0 1.452-1.388 1.5-1.867z" transform="translate(-206.371 -67.602)" style="fill:#a8752f"/>
        <path data-name="Trazado 209" d="M354.505 110.6h1.22v4.142h3.064V110.6h1.22v9.928h-1.22v-4.709h-3.064v4.709h-1.22z" transform="translate(-217.423 -67.832)" style="fill:#a8752f"/>
        <path data-name="Trazado 210" d="M380.913 110.6h1.22v4.142h3.067V110.6h1.22v9.928h-1.22v-4.709h-3.064v4.709h-1.22z" transform="translate(-233.619 -67.832)" style="fill:#a8752f"/>
        <path data-name="Trazado 211" d="M405.136 115.247c0 3.432-.84 5.2-3.016 5.2-2.063 0-2.945-1.714-2.945-5.19 0-3.422 1.035-5.035 3-5.035 2.076 0 2.96 1.644 2.96 5.024m-4.7-.012c0 2.74.531 4.162 1.725 4.162 1.237 0 1.723-1.368 1.723-4.146s-.525-3.971-1.732-3.971c-1.183 0-1.717 1.345-1.717 3.955" transform="translate(-244.819 -67.601)" style="fill:#a8752f"/>
        <path data-name="Trazado 212" d="M424.593 116.4c0-1.821.029-3.694.058-4.755h-.028c-.36 1.749-1.2 5.73-1.961 8.884h-1.152c-.573-2.779-1.447-7.054-1.8-8.905h-.043c.058 1.155.1 3.323.1 5.026v3.879h-1.141V110.6h1.821c.749 3.046 1.464 6.638 1.694 7.964h.015c.189-1.125 1.089-5.034 1.83-7.964h1.795v9.928h-1.189z" transform="translate(-256.75 -67.832)" style="fill:#a8752f"/>
        <path data-name="Trazado 213" d="M446.584 115.829H443.3v3.628h3.66l-.162 1.07h-4.7V110.6h4.658v1.084H443.3v3.069h3.289z" transform="translate(-271.138 -67.832)" style="fill:#a8752f"/>
        <path data-name="Trazado 214" d="M457.956 117.668c.08.983.54 1.781 1.594 1.781 1.009 0 1.495-.565 1.495-1.632 0-1-.419-1.541-1.751-2.182-1.582-.755-2.264-1.448-2.264-2.894a2.543 2.543 0 1 1 5.085.092h-1.2c-.05-.5-.2-1.585-1.367-1.585a1.233 1.233 0 0 0-1.3 1.389c0 .906.4 1.333 1.633 1.915 1.745.827 2.411 1.649 2.411 3.162a2.538 2.538 0 0 1-2.779 2.739 2.581 2.581 0 0 1-2.782-2.785z" transform="translate(-280.121 -67.614)" style="fill:#a8752f"/>
        <path data-name="Trazado 215" d="M15.54 21.763c0-.836 1.506-1.7 3.1-2.607 2.89-1.651 6.848-3.912 6.848-8.658 0-4.039-3.22-8.355-12.256-8.355H.114v1.3A.2.2 0 0 1 0 3.412c.89.726.882 8.029.879 11.147v.816l.049.006v9.592c0 3.174 0 10.608-.919 11.335a.193.193 0 0 1 .106-.029v1.3h6.826v-1.3a.2.2 0 0 1 .112.032c-.928-.746-.926-8.3-.925-11.533V3.883h7.1c4.361 0 6.762 2.592 6.762 7.3 0 3.865-2.344 5.931-4.412 7.753-1.542 1.36-3 2.643-3 4.438 0 3.605 4.266 10.046 9.315 14.065l.178.142H30.2l.123-1.289c-4.564-.885-14.783-12.08-14.783-14.529" transform="translate(0 -1.315)" style="fill:#0d2648"/>
        <path data-name="Trazado 216" d="M96.986.252c-8.627 0-17.913 5.773-17.913 18.448 0 5.679 1.938 10.459 5.605 13.822a18.681 18.681 0 0 0 24.615 0C112.96 29.16 114.9 24.38 114.9 18.7 114.9 6.025 105.613.252 96.986.252m-8.94 5.626a10.048 10.048 0 0 1 7.769-3.74c4.81 0 11.091 3.793 12.965 14.482 1.078 6.113.07 11.389-2.839 14.857a10.064 10.064 0 0 1-7.785 3.739c-6.339 0-11.427-5.665-12.965-14.433-1.082-6.128-.067-11.421 2.855-14.9" transform="translate(-48.496 -.155)" style="fill:#0d2648"/>
        <path data-name="Trazado 217" d="M195.569 2.143H182.6v1.3a.2.2 0 0 1-.114-.033c.89.727.882 8.03.879 11.149v10.6c0 3.119.012 10.422-.879 11.149a.2.2 0 0 1 .114-.033v1.3h13.07A15.467 15.467 0 0 0 208 31.97a19.041 19.041 0 0 0 4.067-12.136A19.063 19.063 0 0 0 207.939 7.7a15.481 15.481 0 0 0-12.369-5.56m8.23 28.82a9.508 9.508 0 0 1-8.182 4.876H190.8c-2.189-.078-2.189-.725-2.189-2.861V3.882h6.957c5.317 0 11.041 5.012 11.041 16.017a21.185 21.185 0 0 1-2.81 11.064" transform="translate(-111.92 -1.314)" style="fill:#0d2648"/>
        <path data-name="Trazado 218" d="M292.949 35.614v-.65c-.309 0-1.248-.54-3.3-5.546L277.586 0h-1.219L264.6 29.759l-.226.551c-.715 1.747-1.8 4.387-2.308 4.676a.241.241 0 0 1 .111-.022v1.3h2.341v-1.3a.457.457 0 0 1 .428.3c-.023-.117-.061-.906 1.5-4.925l1.79-4.655h14.13l1.4 3.537c1.89 4.81 1.592 5.671 1.513 5.794a.163.163 0 0 1 .067-.05v1.3h7.607v-.65m-24.022-11.672 6.276-16.2 6.446 16.2z" transform="translate(-160.73)" style="fill:#0d2648"/>
        <path data-name="Trazado 219" d="M393.875 21.763c0-.836 1.506-1.7 3.1-2.607 2.89-1.651 6.848-3.912 6.848-8.658 0-4.039-3.22-8.355-12.256-8.355h-13.118v1.3a.2.2 0 0 1-.114-.032c.89.726.882 8.03.879 11.149v.815l.049.006v9.592c0 3.174 0 10.608-.919 11.335a.191.191 0 0 1 .106-.029v1.3h6.827v-1.3a.2.2 0 0 1 .112.032c-.928-.746-.926-8.3-.925-11.529V3.883h7.1c4.361 0 6.762 2.592 6.762 7.3 0 3.865-2.344 5.931-4.412 7.753-1.542 1.36-3 2.643-3 4.438 0 3.6 4.266 10.046 9.315 14.065l.177.142h8.127l.123-1.289c-4.566-.884-14.785-12.078-14.785-14.527" transform="translate(-232.038 -1.315)" style="fill:#0d2648"/>
        <path data-name="Trazado 220" d="M485.187 34c-2.618 1.238-6.148 1.839-10.791 1.839h-2.174c-2.431-.078-3.515-1.231-3.515-3.739V19.829h2.665c3.312 0 5.978.384 7.317 1.053l.941.471v-4.787l-.941.471c-1.338.669-4 1.053-7.317 1.053h-2.665V3.883h4.47c4.778 0 8.207.569 10.792 1.791l.928.439V2.144h-22.2v1.3a.2.2 0 0 1-.114-.032c.89.726.882 8.03.879 11.149v10.6c0 3.119.011 10.422-.879 11.149a.2.2 0 0 1 .114-.032v1.3h23.423v-4.016z" transform="translate(-283.705 -1.315)" style="fill:#0d2648"/>
        <path data-name="Trazado 221" d="M354.214 77.309a3.225 3.225 0 1 0 3.225 3.225 3.225 3.225 0 0 0-3.225-3.225" transform="translate(-215.266 -47.415)" style="fill:#0d2648"/>
    </g>
</svg>
